<svg width="16" height="14" viewBox="0 0 16 14" fill="none" xmlns="http://www.w3.org/2000/svg">
<path d="M5.03344 13.4999C11.0697 13.4999 14.3722 8.49768 14.3722 4.16112C14.3722 4.02049 14.3691 3.87674 14.3628 3.73612C15.0052 3.27152 15.5597 2.69605 16 2.03674C15.4017 2.30294 14.7664 2.4768 14.1159 2.55237C14.8009 2.14182 15.3137 1.49686 15.5594 0.737056C14.915 1.11892 14.2104 1.38829 13.4756 1.53362C12.9806 1.00759 12.326 0.659289 11.6131 0.542579C10.9003 0.425868 10.1688 0.547245 9.53183 0.887942C8.89486 1.22864 8.38787 1.76968 8.08923 2.42742C7.7906 3.08516 7.71695 3.82295 7.87969 4.52674C6.575 4.46127 5.29862 4.12235 4.13332 3.53194C2.96802 2.94154 1.9398 2.11284 1.11531 1.09956C0.696266 1.82204 0.568038 2.67697 0.756687 3.49061C0.945337 4.30424 1.43671 5.01551 2.13094 5.47987C1.60975 5.46332 1.09998 5.323 0.64375 5.07049V5.11112C0.643283 5.86931 0.905399 6.60427 1.38554 7.19106C1.86568 7.77785 2.53422 8.18025 3.2775 8.32987C2.7947 8.46196 2.28799 8.48121 1.79656 8.38612C2.0063 9.03817 2.41438 9.60847 2.96385 10.0174C3.51331 10.4264 4.17675 10.6536 4.86156 10.6674C3.69895 11.5806 2.26278 12.076 0.784375 12.0736C0.522191 12.0732 0.260266 12.0571 0 12.0255C1.5019 12.989 3.24902 13.5008 5.03344 13.4999Z" fill="white"/>
</svg>
